# xmcd
#
# Track frame offsets: 
#        183
#        37158
#        65803
#        82195
#        100368
#        148560
#
# Disc length: 2324 seconds
#
# Revision: 3
# Processed by: cddbd v1.5.2PL0 Copyright (c) Steve Scherf et al.
# Submitted via: ExactAudioCopy v0.95b4
#
DISCID=5a091206
DTITLE=Taste - Live Taste
DYEAR=1971
DGENRE=Rock
TTITLE0=Sugar Mama
TTITLE1=Gamblin' Blues
TTITLE2=I Feel So Good (Part 1)
TTITLE3=I Feel So Good (Part 2)
TTITLE4=Catfish
TTITLE5=Same Old Story
EXTD=
EXTT0=
EXTT1=
EXTT2=
EXTT3=
EXTT4=
EXTT5=
PLAYORDER=
